<?xml version="1.0" encoding="UTF-8" standalone="no"?>
<svg
   xmlns:dc="http://purl.org/dc/elements/1.1/"
   xmlns:cc="http://creativecommons.org/ns#"
   xmlns:rdf="http://www.w3.org/1999/02/22-rdf-syntax-ns#"
   xmlns:svg="http://www.w3.org/2000/svg"
   xmlns="http://www.w3.org/2000/svg"
   xmlns:sodipodi="http://sodipodi.sourceforge.net/DTD/sodipodi-0.dtd"
   xmlns:inkscape="http://www.inkscape.org/namespaces/inkscape"
   height="48"
   width="48"
   version="1.1"
   id="svg4"
   sodipodi:docname="communities.svg"
   inkscape:version="1.0.1 (3bc2e813f5, 2020-09-07)">
  <metadata
     id="metadata10">
    <rdf:RDF>
      <cc:Work
         rdf:about="">
        <dc:format>image/svg+xml</dc:format>
        <dc:type
           rdf:resource="http://purl.org/dc/dcmitype/StillImage" />
      </cc:Work>
    </rdf:RDF>
  </metadata>
  <defs
     id="defs8" />
  <sodipodi:namedview
     pagecolor="#ffffff"
     bordercolor="#666666"
     borderopacity="1"
     objecttolerance="10"
     gridtolerance="10"
     guidetolerance="10"
     inkscape:pageopacity="0"
     inkscape:pageshadow="2"
     inkscape:window-width="1920"
     inkscape:window-height="1017"
     id="namedview6"
     showgrid="false"
     inkscape:zoom="17.708333"
     inkscape:cx="24"
     inkscape:cy="24"
     inkscape:window-x="-8"
     inkscape:window-y="-8"
     inkscape:window-maximized="1"
     inkscape:current-layer="svg4" />
  <path
     d="M-.15 36.15v-2.8q0-2.05 2.1-3.275T7.5 28.85q.5 0 1.025.025.525.025.975.075-.4.9-.6 1.85-.2.95-.2 2v3.35Zm12 0V32.8q0-3.3 3.35-5.375T24 25.35q5.45 0 8.8 2.075 3.35 2.075 3.35 5.375v3.35Zm27.45 0V32.8q0-1.05-.2-2t-.6-1.85q.45-.05.975-.075.525-.025 1.025-.025 3.4 0 5.525 1.225Q48.15 31.3 48.15 33.35v2.8ZM7.5 27.4q-1.5 0-2.55-1.05Q3.9 25.3 3.9 23.8q0-1.5 1.05-2.55Q6 20.2 7.5 20.2q1.5 0 2.55 1.05 1.05 1.05 1.05 2.55 0 1.5-1.05 2.55Q9 27.4 7.5 27.4Zm33 0q-1.5 0-2.55-1.05-1.05-1.05-1.05-2.55 0-1.5 1.05-2.55Q39 20.2 40.5 20.2q1.5 0 2.55 1.05 1.05 1.05 1.05 2.55 0 1.5-1.05 2.55Q42 27.4 40.5 27.4ZM24 23.85q-2.55 0-4.35-1.775-1.8-1.775-1.8-4.375 0-2.55 1.8-4.325Q21.45 11.6 24 11.6t4.35 1.775q1.8 1.775 1.8 4.325 0 2.6-1.8 4.375T24 23.85Z"
     id="path2" />
  <path
     style="fill:#ffffff;stroke-width:0.0564706"
     d="m 11.87272,34.065882 c 0.02553,-2.022097 0.03003,-2.089769 0.175615,-2.64 0.428938,-1.621121 1.459697,-2.904809 3.200932,-3.98638 2.406635,-1.494885 5.996841,-2.23081 9.900799,-2.029478 3.208568,0.16547 5.64872,0.817023 7.600667,2.029478 1.741235,1.081571 2.771994,2.365259 3.200932,3.98638 0.145588,0.550231 0.150089,0.617903 0.175615,2.64 l 0.0262,2.075294 H 24 11.846522 Z"
     id="path12" />
  <path
     style="fill:#ffffff;stroke-width:0.0564706"
     d="m -0.11294118,34.515394 c 0,-1.80689 0.02643556,-2.002468 0.36422518,-2.694643 0.65155382,-1.335118 2.4839905,-2.384357 4.8249286,-2.762717 0.9206205,-0.148797 2.3678318,-0.21366 3.3861659,-0.151765 0.5079552,0.03087 0.9327078,0.06529 0.9438952,0.07647 0.011187,0.01119 -0.077626,0.298646 -0.1973619,0.638798 -0.4495228,1.277028 -0.4773521,1.50866 -0.5000295,4.161987 l -0.02015,2.357647 H 4.2878954 -0.11294118 Z"
     id="path14" />
  <path
     style="fill:#ffffff;stroke-width:0.0564706"
     d="M 6.967413,27.335091 C 6.1892225,27.21218 5.5787298,26.895987 4.9865353,26.309134 4.5640857,25.890494 4.297511,25.476841 4.1170986,24.96 3.9433063,24.462124 3.9013072,23.441939 4.0333796,22.92641 c 0.4242235,-1.655906 2.0022777,-2.805728 3.6864991,-2.686104 0.9663579,0.06864 1.7406432,0.444545 2.4142413,1.172093 0.790595,0.853916 1.098101,2.001979 0.84995,3.173252 -0.254378,1.20066 -1.2871874,2.296781 -2.4998177,2.653058 -0.3690719,0.108435 -1.133141,0.156985 -1.5168393,0.09638 z"
     id="path16" />
  <path
     style="fill:#ffffff;stroke-width:0.0564706"
     d="m 23.16471,23.774091 c -1.366787,-0.192784 -2.505402,-0.765497 -3.508083,-1.764534 -0.79095,-0.788075 -1.298824,-1.664373 -1.596322,-2.754332 -0.115502,-0.423169 -0.130525,-0.603326 -0.129396,-1.551696 0.0015,-1.285236 0.08488,-1.679147 0.561622,-2.654117 0.865229,-1.769469 2.505099,-2.995051 4.456043,-3.330293 2.698715,-0.463736 5.365912,0.890539 6.558895,3.330293 0.476738,0.97497 0.560091,1.368881 0.561622,2.654117 0.0011,0.94837 -0.01389,1.128527 -0.129396,1.551696 -0.298517,1.093692 -0.808077,1.971584 -1.599593,2.755849 -0.923002,0.914547 -1.854328,1.426682 -3.061692,1.683621 -0.492212,0.104748 -1.630757,0.147514 -2.1137,0.0794 z"
     id="path18" />
  <path
     style="fill:#ffffff;stroke-width:0.0564706"
     d="m 39.28847,33.755294 c -0.02661,-2.68301 -0.04735,-2.856527 -0.492465,-4.120202 -0.12244,-0.347604 -0.213502,-0.641124 -0.202359,-0.652267 0.01114,-0.01114 0.423189,-0.04519 0.915659,-0.07565 2.506625,-0.155077 4.891833,0.284252 6.485165,1.194498 1.135892,0.648917 1.868931,1.576749 2.06578,2.614729 0.02898,0.152813 0.05269,0.985903 0.05269,1.851311 v 1.573468 h -4.400406 -4.400406 z"
     id="path20" />
  <path
     style="fill:#ffffff;stroke-width:0.0564706"
     d="m 39.947413,27.335234 c -1.400606,-0.221424 -2.642677,-1.386425 -2.931483,-2.749583 -0.248152,-1.171273 0.05936,-2.319336 0.84995,-3.173252 0.673598,-0.727548 1.447883,-1.103457 2.414241,-1.172093 1.688808,-0.11995 3.261973,1.029015 3.688497,2.693902 0.136667,0.533461 0.0882,1.534878 -0.09969,2.05979 -0.362012,1.011345 -1.251025,1.877605 -2.251164,2.193549 -0.48228,0.152352 -1.22529,0.218047 -1.670346,0.147687 z"
     id="path22" />
</svg>
