<?xml version="1.0" encoding="UTF-8" standalone="no"?>
<svg
   xmlns:dc="http://purl.org/dc/elements/1.1/"
   xmlns:cc="http://creativecommons.org/ns#"
   xmlns:rdf="http://www.w3.org/1999/02/22-rdf-syntax-ns#"
   xmlns:svg="http://www.w3.org/2000/svg"
   xmlns="http://www.w3.org/2000/svg"
   xmlns:sodipodi="http://sodipodi.sourceforge.net/DTD/sodipodi-0.dtd"
   xmlns:inkscape="http://www.inkscape.org/namespaces/inkscape"
   height="48"
   width="48"
   version="1.1"
   id="svg4"
   sodipodi:docname="history.svg"
   inkscape:version="1.0.1 (3bc2e813f5, 2020-09-07)">
  <metadata
     id="metadata10">
    <rdf:RDF>
      <cc:Work
         rdf:about="">
        <dc:format>image/svg+xml</dc:format>
        <dc:type
           rdf:resource="http://purl.org/dc/dcmitype/StillImage" />
      </cc:Work>
    </rdf:RDF>
  </metadata>
  <defs
     id="defs8" />
  <sodipodi:namedview
     pagecolor="#ffffff"
     bordercolor="#666666"
     borderopacity="1"
     objecttolerance="10"
     gridtolerance="10"
     guidetolerance="10"
     inkscape:pageopacity="0"
     inkscape:pageshadow="2"
     inkscape:window-width="1920"
     inkscape:window-height="1017"
     id="namedview6"
     showgrid="false"
     inkscape:zoom="17.708333"
     inkscape:cx="24"
     inkscape:cy="24"
     inkscape:window-x="-8"
     inkscape:window-y="-8"
     inkscape:window-maximized="1"
     inkscape:current-layer="svg4" />
  <path
     d="M23.85 42.3q-7.6 0-12.9-5.35-5.3-5.35-5.25-13h3.4q0 6.2 4.275 10.575Q17.65 38.9 23.85 38.9q6.3 0 10.675-4.425Q38.9 30.05 38.9 23.75q0-6.15-4.425-10.4T23.85 9.1q-3.3 0-6.2 1.475-2.9 1.475-5.1 3.925h5v3.15H6.85V7H10v5.2q2.65-3.05 6.225-4.775Q19.8 5.7 23.85 5.7q3.8 0 7.15 1.425 3.35 1.425 5.875 3.9Q39.4 13.5 40.85 16.8q1.45 3.3 1.45 7.1t-1.45 7.15q-1.45 3.35-3.975 5.85Q34.35 39.4 31 40.85q-3.35 1.45-7.15 1.45Zm6.35-10.1-7.7-7.6V13.85h3.1v9.45l6.85 6.65Z"
     id="path2" />
  <path
     style="fill:#ffffff;stroke-width:0.0564706"
     d="m 22.644706,42.234226 c -3.796164,-0.227468 -7.111157,-1.500415 -10.08,-3.870691 C 11.736312,37.702159 10.322812,36.280257 9.6191909,35.400512 7.6894042,32.987677 6.4989467,30.34044 5.9906903,27.331765 5.8728529,26.634215 5.7847981,25.726219 5.7319325,24.663529 L 5.6989239,24 h 1.6876677 1.6876678 l 0.035738,0.861176 c 0.1555901,3.749228 1.6401376,7.073881 4.3827346,9.815164 2.269799,2.268712 4.924853,3.620284 8.050797,4.098311 0.845615,0.129314 3.591862,0.149288 4.404706,0.03204 2.378267,-0.34306 4.337049,-1.07249 6.18353,-2.302684 0.758022,-0.505023 1.392293,-1.024343 2.167393,-1.774592 2.505846,-2.425503 3.994168,-5.308018 4.475651,-8.668236 0.148129,-1.033779 0.150409,-3.606197 0.004,-4.545882 -0.376006,-2.413765 -1.217393,-4.442169 -2.611788,-6.29647 C 34.262533,12.686152 31.662204,10.784657 28.828235,9.8523031 27.313782,9.3540596 26.112937,9.1541142 24.363492,9.1089058 22.9701,9.0728983 22.172094,9.1316789 21.063529,9.3519789 18.233531,9.9143714 15.116845,11.719964 12.875294,14.095678 l -0.367059,0.389028 2.498824,0.01471 2.498823,0.0147 v 1.552354 1.552354 H 12.197647 6.8894118 V 12.310588 7.0023529 h 1.5529411 1.5529412 v 2.6027372 2.6027379 l 0.8894119,-0.896334 c 1.554173,-1.5662686 3.192559,-2.7586547 5.09647,-3.7091145 1.483282,-0.7404755 2.781639,-1.200835 4.231718,-1.5004443 2.983819,-0.616504 6.295871,-0.4502061 9.143286,0.4590839 4.06925,1.2994695 7.614039,3.9502599 9.897175,7.4010999 1.676103,2.533342 2.625887,5.170848 2.933472,8.146116 0.09488,0.917816 0.07974,2.905007 -0.02927,3.84 -0.258425,2.216642 -0.770065,3.936882 -1.782243,5.992278 -0.935203,1.899083 -1.997674,3.381962 -3.497138,4.880917 -0.95972,0.959393 -1.756554,1.612259 -2.854651,2.338888 -2.858569,1.891564 -5.781367,2.872004 -9.177446,3.078537 -1.019938,0.06203 -1.091477,0.06188 -2.201377,-0.0046 z"
     id="path12" />
  <path
     style="fill:#ffffff;stroke-width:0.0564706"
     d="m 26.358431,28.361142 -3.825099,-3.768201 -7.83e-4,-5.350588 -7.84e-4,-5.350588 h 1.524706 1.524705 l 0.0032,4.729411 0.0032,4.729412 3.411907,3.30353 3.411907,3.303529 -1.085179,1.087059 c -0.596848,0.597882 -1.098128,1.086514 -1.113956,1.085847 -0.01583,-6.66e-4 -1.750073,-1.696901 -3.853878,-3.769411 z"
     id="path14" />
</svg>
