<?xml version="1.0" encoding="UTF-8" standalone="no"?>
<svg
   xmlns:dc="http://purl.org/dc/elements/1.1/"
   xmlns:cc="http://creativecommons.org/ns#"
   xmlns:rdf="http://www.w3.org/1999/02/22-rdf-syntax-ns#"
   xmlns:svg="http://www.w3.org/2000/svg"
   xmlns="http://www.w3.org/2000/svg"
   xmlns:sodipodi="http://sodipodi.sourceforge.net/DTD/sodipodi-0.dtd"
   xmlns:inkscape="http://www.inkscape.org/namespaces/inkscape"
   height="48"
   width="48"
   version="1.1"
   id="svg4"
   sodipodi:docname="privacy.svg"
   inkscape:version="1.0.1 (3bc2e813f5, 2020-09-07)">
  <metadata
     id="metadata10">
    <rdf:RDF>
      <cc:Work
         rdf:about="">
        <dc:format>image/svg+xml</dc:format>
        <dc:type
           rdf:resource="http://purl.org/dc/dcmitype/StillImage" />
      </cc:Work>
    </rdf:RDF>
  </metadata>
  <defs
     id="defs8" />
  <sodipodi:namedview
     pagecolor="#ffffff"
     bordercolor="#666666"
     borderopacity="1"
     objecttolerance="10"
     gridtolerance="10"
     guidetolerance="10"
     inkscape:pageopacity="0"
     inkscape:pageshadow="2"
     inkscape:window-width="1920"
     inkscape:window-height="1017"
     id="namedview6"
     showgrid="false"
     inkscape:zoom="17.708333"
     inkscape:cx="24"
     inkscape:cy="24"
     inkscape:window-x="-8"
     inkscape:window-y="-8"
     inkscape:window-maximized="1"
     inkscape:current-layer="svg4" />
  <path
     d="m21.8 30.3 11.5-11.5-2.2-2.15-9.15 9.15-5.05-5.05-2.3 2.3ZM24 44.25q-7.15-1.75-11.725-8.225Q7.7 29.55 7.7 21.85V9.75L24 3.65l16.3 6.1v12.1q0 7.7-4.575 14.175Q31.15 42.5 24 44.25Z"
     id="path2" />
  <path
     style="fill:#ffffff;stroke-width:0.0564706"
     d="M 23.52,44.097632 C 18.603384,42.719306 14.727755,39.764825 11.675421,35.068235 9.575618,31.837294 8.3338286,28.403286 7.8669743,24.536471 7.7733951,23.761382 7.7647059,23.09767 7.7647059,16.724833 V 9.7602551 L 15.882353,6.7229455 24,3.685636 l 8.117647,3.0373095 8.117647,3.0373096 v 6.9645779 c 0,6.321751 -0.0092,7.040156 -0.10012,7.783402 -0.499186,4.082554 -1.747613,7.454388 -4.02485,10.870589 -2.748473,4.123127 -6.122035,6.839568 -10.309143,8.301074 -0.627615,0.219068 -1.724666,0.539187 -1.825092,0.532561 -0.03344,-0.0022 -0.238677,-0.05388 -0.456089,-0.114827 z m 4.065986,-19.537006 5.759896,-5.76408 -1.12587,-1.100509 -1.125869,-1.10051 -4.577764,4.577506 -4.577763,4.577505 -2.526736,-2.526736 -2.526736,-2.526736 -1.157995,1.156962 c -0.636898,0.636329 -1.151585,1.172994 -1.143749,1.19259 0.02423,0.06061 7.173186,7.278088 7.208982,7.278088 0.01854,0 2.625661,-2.593836 5.793604,-5.76408 z"
     id="path12" />
</svg>
