<?xml version="1.0" encoding="UTF-8" standalone="no"?>
<svg
   xmlns:dc="http://purl.org/dc/elements/1.1/"
   xmlns:cc="http://creativecommons.org/ns#"
   xmlns:rdf="http://www.w3.org/1999/02/22-rdf-syntax-ns#"
   xmlns:svg="http://www.w3.org/2000/svg"
   xmlns="http://www.w3.org/2000/svg"
   xmlns:sodipodi="http://sodipodi.sourceforge.net/DTD/sodipodi-0.dtd"
   xmlns:inkscape="http://www.inkscape.org/namespaces/inkscape"
   height="48"
   width="48"
   version="1.1"
   id="svg22"
   sodipodi:docname="profile.svg"
   inkscape:version="1.0.1 (3bc2e813f5, 2020-09-07)">
  <metadata
     id="metadata28">
    <rdf:RDF>
      <cc:Work
         rdf:about="">
        <dc:format>image/svg+xml</dc:format>
        <dc:type
           rdf:resource="http://purl.org/dc/dcmitype/StillImage" />
      </cc:Work>
    </rdf:RDF>
  </metadata>
  <defs
     id="defs26" />
  <sodipodi:namedview
     pagecolor="#ffffff"
     bordercolor="#666666"
     borderopacity="1"
     objecttolerance="10"
     gridtolerance="10"
     guidetolerance="10"
     inkscape:pageopacity="0"
     inkscape:pageshadow="2"
     inkscape:window-width="1387"
     inkscape:window-height="979"
     id="namedview24"
     showgrid="false"
     inkscape:zoom="17.708333"
     inkscape:cx="24"
     inkscape:cy="24"
     inkscape:window-x="0"
     inkscape:window-y="0"
     inkscape:window-maximized="0"
     inkscape:current-layer="svg22" />
  <path
     d="M11.15 35.1q3.15-1.95 6.2-2.975Q20.4 31.1 24 31.1q3.6 0 6.7 1.025t6.2 2.975q2.2-2.7 3.1-5.4.9-2.7.9-5.7 0-7.2-4.85-12.05Q31.2 7.1 24 7.1q-7.2 0-12.05 4.85Q7.1 16.8 7.1 24q0 3 .925 5.7t3.125 5.4ZM24 25.6q-2.95 0-4.925-2-1.975-2-1.975-4.95 0-2.9 2-4.9 2-2 4.9-2 2.95 0 4.925 2 1.975 2 1.975 4.95 0 2.9-2 4.9-2 2-4.9 2Zm0 18.7q-4.25 0-7.95-1.6T9.6 38.325q-2.75-2.775-4.325-6.45Q3.7 28.2 3.7 24q0-4.25 1.6-7.925T9.675 9.65q2.775-2.75 6.45-4.35Q19.8 3.7 24.05 3.7q4.2 0 7.875 1.6t6.425 4.35q2.75 2.75 4.35 6.45 1.6 3.7 1.6 7.9t-1.6 7.875q-1.6 3.675-4.35 6.45Q35.6 41.1 31.9 42.7T24 44.3Z"
     id="path20" />
  <path
     style="fill:#a0a0a0;stroke:none;stroke-width:0.0564706"
     d="M 23.04,44.236728 C 19.76603,44.113228 16.674877,43.199701 13.750588,41.491434 8.7371936,38.562784 5.1067935,33.408506 4.0693464,27.746445 3.8439998,26.516574 3.7552941,25.458372 3.7552941,24 c 0,-3.288874 0.5931648,-5.914934 1.9770821,-8.752941 C 6.7431011,13.17436 7.8709151,11.572893 9.4856634,9.9174872 12.48948,6.8380387 16.391719,4.7470604 20.458744,4.0376651 c 2.146653,-0.3744324 4.92837,-0.3852447 7.028916,-0.027321 5.312578,0.9052405 10.318539,4.1793496 13.338244,8.7237739 1.84257,2.772926 2.884949,5.567777 3.317186,8.894117 0.116688,0.897982 0.09923,4.049729 -0.02747,4.959309 -0.313867,2.253255 -0.841912,4.02514 -1.787793,5.999039 -1.068289,2.229346 -2.302085,3.969311 -4.065133,5.732866 -2.098602,2.099206 -4.170463,3.466525 -6.921517,4.567834 -2.591404,1.037398 -5.224834,1.465491 -8.301176,1.349445 z M 11.985929,34.64167 c 0.915653,-0.536356 2.377637,-1.281863 3.290284,-1.677809 3.158917,-1.370476 5.792801,-1.881901 9.288493,-1.803563 1.884608,0.04223 3.211319,0.211327 4.8,0.611776 1.986358,0.500687 4.474988,1.562404 6.64878,2.836547 0.457771,0.268317 0.855687,0.48785 0.884257,0.48785 0.195139,0 1.776744,-2.373057 2.333749,-3.501581 1.098146,-2.224906 1.594303,-4.340465 1.664096,-7.095525 0.07242,-2.858626 -0.369772,-5.299966 -1.368979,-7.558189 C 38.679196,15.026012 37.620233,13.497112 36.061561,11.938439 34.510321,10.3872 32.96183,9.3123659 31.085056,8.4841647 28.949034,7.5415592 26.645475,7.0874447 24,7.0874447 c -4.157424,0 -7.621906,1.1575187 -10.644706,3.5565053 -0.760786,0.603783 -2.107561,1.950558 -2.711344,2.711344 -2.0465748,2.57875 -3.1872637,5.48849 -3.4977804,8.922353 C 7.1138709,22.634824 7.08763,23.409882 7.0878564,24 c 0.00139,3.623214 0.9260269,6.702647 2.8655603,9.543529 0.5276263,0.772828 1.1317663,1.552942 1.2026363,1.552942 0.0294,0 0.402843,-0.204661 0.829876,-0.454801 z"
     id="path30" />
  <path
     style="fill:#ffffff;stroke:none;stroke-width:0.0564706"
     d="m 22.706485,25.462184 c -1.827647,-0.330038 -3.380827,-1.345061 -4.436131,-2.899063 -1.425721,-2.099468 -1.516102,-5.267155 -0.211777,-7.422455 1.036318,-1.71244 2.7565,-2.913078 4.670835,-3.260109 0.604878,-0.109653 2.051662,-0.0968 2.659428,0.02362 1.40643,0.278674 2.405665,0.81334 3.447256,1.844541 1.36634,1.352711 2.023658,2.95152 2.024747,4.92484 7.85e-4,1.416794 -0.311782,2.545881 -1.025072,3.7029 -0.377338,0.612075 -1.421961,1.683169 -2.022839,2.074098 -0.8303,0.54019 -1.809106,0.912863 -2.736282,1.041822 -0.597111,0.08305 -1.830024,0.06734 -2.370165,-0.0302 z"
     id="path32" />
  <path
     style="fill:#ffffff;stroke-width:0.0564706"
     d="m 22.503529,25.385728 c -2.711897,-0.580778 -4.742973,-2.704952 -5.224019,-5.463472 -0.108589,-0.622697 -0.108589,-1.894757 0,-2.517453 0.247316,-1.418212 0.844646,-2.555626 1.887281,-3.593693 0.847085,-0.843372 1.962179,-1.490926 3.091814,-1.795467 0.51891,-0.139895 0.633651,-0.149688 1.741395,-0.148628 1.092772,10e-4 1.22833,0.01251 1.726511,0.145986 1.337787,0.358438 2.161693,0.84242 3.168087,1.861012 1.003046,1.015202 1.586348,2.150794 1.832586,3.567736 0.139042,0.800099 0.08304,2.308125 -0.113532,3.057075 -0.173674,0.661718 -0.64558,1.659991 -1.020465,2.158697 -0.358806,0.477317 -1.180461,1.302605 -1.61808,1.625232 -0.679255,0.50077 -1.692574,0.938566 -2.603314,1.12474 -0.626746,0.12812 -2.225018,0.115991 -2.868264,-0.02176 z"
     id="path34" />
  <path
     style="fill:#ffffff;stroke-width:0.0564706"
     d="M 22.983529,44.207247 C 19.626891,44.047712 16.41746,43.064999 13.529442,41.312448 8.5631204,38.29871 5.0420975,33.169153 4.0685124,27.529412 3.86349,26.341766 3.8085683,25.602634 3.8085683,24.031102 c 0,-2.926737 0.3575617,-4.916025 1.3136559,-7.308503 1.0857215,-2.71685 2.5023797,-4.868884 4.5602742,-6.9274762 2.6547626,-2.6556627 5.7949456,-4.4775211 9.2916196,-5.3907739 2.886397,-0.7538622 6.318393,-0.8358559 9.242107,-0.2208028 2.845847,0.5986722 5.752964,1.9683978 8.165438,3.8472498 2.462537,1.9178428 4.346532,4.2256911 5.77005,7.0681731 0.892324,1.781791 1.463488,3.556007 1.842838,5.724431 0.133812,0.764898 0.153852,1.051512 0.179023,2.560588 0.0411,2.463802 -0.0822,3.708541 -0.551619,5.568955 -0.64923,2.573032 -2.056869,5.395131 -3.752227,7.522637 -0.929512,1.166445 -2.31752,2.552754 -3.496098,3.491817 -2.179632,1.73668 -5.204358,3.179983 -7.940689,3.789044 -1.652915,0.367912 -3.674621,0.535159 -5.449412,0.450806 z M 12.057144,34.63819 c 3.496019,-1.95827 6.075989,-2.896582 9.091091,-3.306348 1.073689,-0.145918 4.638919,-0.146305 5.731765,-6.21e-4 3.032935,0.404312 5.751516,1.394267 9.186012,3.345032 0.406908,0.23112 0.785328,0.420218 0.840935,0.420218 0.23637,0 1.771489,-2.31069 2.426528,-3.652457 0.738472,-1.512667 1.358864,-3.641065 1.436162,-4.927081 0.01227,-0.204078 0.04317,-0.421874 0.06869,-0.483992 0.07727,-0.188145 0.05525,-3.768563 -0.02726,-4.432941 -0.435732,-3.508563 -1.87283,-6.643489 -4.167804,-9.091765 C 33.61802,9.2809076 30.328963,7.6130687 26.113146,7.1685471 24.697668,7.019297 20.978824,7.1266402 20.978824,7.3167476 c 0,0.02315 -0.04549,0.030195 -0.101085,0.015657 -0.139223,-0.036408 -1.138725,0.1716414 -1.988327,0.413876 -1.791583,0.5108075 -3.412395,1.3110354 -5.053208,2.4948704 -0.750001,0.541121 -2.689991,2.414908 -3.282635,3.170614 -0.8368398,1.06709 -1.7310678,2.599022 -2.2466271,3.848771 -0.5738948,1.391159 -0.9954432,3.127551 -1.1631789,4.791229 -0.1029268,1.020874 -0.041484,3.734947 0.106113,4.687279 0.4402713,2.840731 1.4550655,5.213135 3.264767,7.632428 0.302814,0.404817 0.582515,0.724999 0.633336,0.724999 0.05006,0 0.459183,-0.206226 0.909165,-0.458281 z"
     id="path36" />
  <path
     style="fill:#ffffff;stroke-width:0.0564706"
     d=""
     id="path38" />
</svg>
