<?xml version="1.0" encoding="UTF-8" standalone="no"?>
<svg
   xmlns:dc="http://purl.org/dc/elements/1.1/"
   xmlns:cc="http://creativecommons.org/ns#"
   xmlns:rdf="http://www.w3.org/1999/02/22-rdf-syntax-ns#"
   xmlns:svg="http://www.w3.org/2000/svg"
   xmlns="http://www.w3.org/2000/svg"
   xmlns:sodipodi="http://sodipodi.sourceforge.net/DTD/sodipodi-0.dtd"
   xmlns:inkscape="http://www.inkscape.org/namespaces/inkscape"
   height="48"
   width="48"
   version="1.1"
   id="svg4"
   sodipodi:docname="settings.svg"
   inkscape:version="1.0.1 (3bc2e813f5, 2020-09-07)">
  <metadata
     id="metadata10">
    <rdf:RDF>
      <cc:Work
         rdf:about="">
        <dc:format>image/svg+xml</dc:format>
        <dc:type
           rdf:resource="http://purl.org/dc/dcmitype/StillImage" />
      </cc:Work>
    </rdf:RDF>
  </metadata>
  <defs
     id="defs8" />
  <sodipodi:namedview
     pagecolor="#ffffff"
     bordercolor="#666666"
     borderopacity="1"
     objecttolerance="10"
     gridtolerance="10"
     guidetolerance="10"
     inkscape:pageopacity="0"
     inkscape:pageshadow="2"
     inkscape:window-width="1920"
     inkscape:window-height="1017"
     id="namedview6"
     showgrid="false"
     inkscape:zoom="17.708333"
     inkscape:cx="24"
     inkscape:cy="24"
     inkscape:window-x="-8"
     inkscape:window-y="-8"
     inkscape:window-maximized="1"
     inkscape:current-layer="svg4" />
  <path
     d="m19.15 44.3-1.05-6.4q-.85-.3-1.85-.875T14.5 35.85L8.55 38.6 3.6 29.9l5.5-4q-.1-.4-.125-.95-.025-.55-.025-.95 0-.4.025-.95.025-.55.125-.95l-5.5-4 4.95-8.7 6 2.75q.7-.6 1.7-1.15 1-.55 1.85-.85l1.05-6.45h9.7l1.05 6.4q.85.35 1.875.875T33.5 12.15l6-2.75 4.9 8.7-5.5 3.9q.1.45.125 1 .025.55.025 1 0 .45-.025.975-.025.525-.125.975l5.5 3.95-4.95 8.7-6-2.75q-.7.6-1.675 1.2-.975.6-1.875.85l-1.05 6.4ZM24 30.5q2.7 0 4.6-1.9 1.9-1.9 1.9-4.6 0-2.7-1.9-4.6-1.9-1.9-4.6-1.9-2.7 0-4.6 1.9-1.9 1.9-1.9 4.6 0 2.7 1.9 4.6 1.9 1.9 4.6 1.9Z"
     id="path2" />
  <path
     style="fill:#ffffff;stroke-width:0.0564706"
     d="m 18.668815,41.180903 c -0.276622,-1.70032 -0.52153,-3.142807 -0.544239,-3.205527 -0.0252,-0.06959 -0.170304,-0.165913 -0.372345,-0.247153 -0.811156,-0.326166 -2.008949,-1.023834 -3.175677,-1.849709 -0.07513,-0.05318 -0.62108,0.180471 -3.000083,1.283979 -1.5995298,0.741946 -2.9370815,1.34932 -2.9723375,1.349721 -0.035256,4e-4 -1.1644772,-1.933787 -2.5093804,-4.298193 -2.3368412,-4.108283 -2.4404279,-4.302535 -2.3358981,-4.38041 0.060159,-0.04482 1.2946393,-0.943894 2.7432893,-1.997944 l 2.6339089,-1.916454 -0.061796,-0.239606 c -0.0823,-0.319108 -0.0823,-3.040106 0,-3.359214 l 0.061796,-0.239606 -2.6339089,-1.916454 c -1.44865,-1.05405 -2.6831301,-1.953124 -2.7432893,-1.997944 -0.1045298,-0.07787 -9.431e-4,-0.272127 2.3358981,-4.38041 1.3449032,-2.364406 2.4741243,-4.2985712 2.5093804,-4.2981454 0.035256,4.518e-4 1.3855136,0.6076374 3.0005725,1.3493574 l 2.93647,1.348582 0.169412,-0.133314 c 0.698026,-0.54929 2.115759,-1.367862 2.892123,-1.669855 0.325436,-0.126589 0.493622,-0.223719 0.521537,-0.301193 0.02266,-0.06289 0.267622,-1.5182594 0.544359,-3.234146 L 19.171765,3.7274712 24,3.7275256 l 4.828235,5.44e-5 0.476512,2.9199114 c 0.609522,3.7349506 0.570163,3.5172146 0.635774,3.5172146 0.115298,0 1.734405,0.781013 2.258308,1.089347 0.298642,0.17576 0.714057,0.456746 0.923144,0.624413 l 0.380159,0.304849 0.655993,-0.298496 c 0.360796,-0.164173 1.685101,-0.770831 2.942901,-1.348128 1.2578,-0.5772981 2.31474,-1.0496322 2.348757,-1.0496322 0.09199,0 4.905615,8.5805962 4.845609,8.6376112 -0.02788,0.02649 -1.257745,0.903853 -2.733039,1.949702 -1.882134,1.334262 -2.678455,1.929705 -2.669286,1.995939 0.112059,0.809465 0.138148,1.368855 0.108433,2.324983 -0.01882,0.605647 -0.05645,1.207259 -0.08362,1.336915 l -0.0494,0.235739 2.732547,1.962809 c 1.949294,1.400194 2.723451,1.986509 2.700817,2.045493 -0.100343,0.261488 -4.851991,8.536691 -4.901796,8.536691 -0.03314,0 -1.360513,-0.595874 -2.949708,-1.324163 -1.589195,-0.72829 -2.91572,-1.331819 -2.947834,-1.341176 -0.03211,-0.0094 -0.283787,0.152588 -0.559275,0.359878 -0.969026,0.729143 -2.1075,1.374149 -2.782313,1.576328 -0.151403,0.04536 -0.258185,0.116322 -0.284566,0.189105 -0.02322,0.06407 -0.268553,1.50767 -0.545175,3.20799 l -0.50295,3.091491 H 24 19.171765 Z m 6.605787,-10.775292 c 1.20851,-0.214138 2.276946,-0.768205 3.211498,-1.665413 0.533258,-0.511949 0.815553,-0.859361 1.160185,-1.427807 1.009381,-1.664902 1.156645,-3.966495 0.376263,-5.880624 -0.580402,-1.423612 -2.030703,-2.873913 -3.454315,-3.454315 -1.633486,-0.665965 -3.50298,-0.665965 -5.136466,0 -1.423612,0.580402 -2.873913,2.030703 -3.454315,3.454315 -0.819847,2.01093 -0.624366,4.354551 0.508132,6.091956 0.341829,0.524411 1.054594,1.30264 1.52371,1.663656 1.478955,1.138154 3.317085,1.563441 5.265308,1.218232 z"
     id="path12" />
</svg>
