<?xml version="1.0" encoding="UTF-8" standalone="no"?>
<svg
   xmlns:dc="http://purl.org/dc/elements/1.1/"
   xmlns:cc="http://creativecommons.org/ns#"
   xmlns:rdf="http://www.w3.org/1999/02/22-rdf-syntax-ns#"
   xmlns:svg="http://www.w3.org/2000/svg"
   xmlns="http://www.w3.org/2000/svg"
   xmlns:sodipodi="http://sodipodi.sourceforge.net/DTD/sodipodi-0.dtd"
   xmlns:inkscape="http://www.inkscape.org/namespaces/inkscape"
   height="48"
   width="48"
   version="1.1"
   id="svg4"
   sodipodi:docname="support.svg"
   inkscape:version="1.0.1 (3bc2e813f5, 2020-09-07)">
  <metadata
     id="metadata10">
    <rdf:RDF>
      <cc:Work
         rdf:about="">
        <dc:format>image/svg+xml</dc:format>
        <dc:type
           rdf:resource="http://purl.org/dc/dcmitype/StillImage" />
      </cc:Work>
    </rdf:RDF>
  </metadata>
  <defs
     id="defs8" />
  <sodipodi:namedview
     pagecolor="#ffffff"
     bordercolor="#666666"
     borderopacity="1"
     objecttolerance="10"
     gridtolerance="10"
     guidetolerance="10"
     inkscape:pageopacity="0"
     inkscape:pageshadow="2"
     inkscape:window-width="1920"
     inkscape:window-height="1017"
     id="namedview6"
     showgrid="false"
     inkscape:zoom="17.708333"
     inkscape:cx="24"
     inkscape:cy="24"
     inkscape:window-x="-8"
     inkscape:window-y="-8"
     inkscape:window-maximized="1"
     inkscape:current-layer="svg4" />
  <path
     d="M23.8 35.7q.85 0 1.425-.575.575-.575.575-1.425 0-.85-.575-1.425-.575-.575-1.425-.575-.8 0-1.4.575-.6.575-.6 1.425 0 .85.6 1.425.6.575 1.4.575Zm-1.75-7.4h3.05q0-1.5.475-2.5t1.775-2.25q1.55-1.55 2.225-2.825.675-1.275.675-2.725 0-2.7-1.725-4.25Q26.8 12.2 23.9 12.2q-2.6 0-4.425 1.275Q17.65 14.75 16.75 16.9l2.85 1.2q.7-1.35 1.75-2.1t2.55-.75q1.55 0 2.4.775.85.775.85 2.075 0 1-.55 1.9-.55.9-1.7 2.05-1.9 1.8-2.375 3.025-.475 1.225-.475 3.225ZM9.1 42.3q-1.35 0-2.375-1.025T5.7 38.9V9.1q0-1.4 1.025-2.4t2.375-1h29.8q1.4 0 2.4 1t1 2.4v29.8q0 1.35-1 2.375T38.9 42.3Z"
     id="path2" />
  <path
     style="fill:#ffffff;stroke-width:0.0564706"
     d="M 8.6964706,42.237886 C 7.4757236,42.092415 6.2878563,41.07755 5.8567726,39.811765 L 5.7317647,39.444706 5.7163646,24.367059 C 5.706879,15.080059 5.7216277,9.1034183 5.7547671,8.8051232 5.824273,8.1794848 5.979855,7.7441676 6.303736,7.2691126 6.7632759,6.5950789 7.4671048,6.0827351 8.2729412,5.8356532 8.5983908,5.7358654 9.2191626,5.7317647 24,5.7317647 c 14.753488,0 15.403376,0.00427 15.755294,0.103578 0.599517,0.1691737 1.004492,0.4154731 1.496715,0.9102776 0.493031,0.4956167 0.747376,0.9133949 0.912649,1.4990856 0.0993,0.351918 0.103577,1.0018063 0.103577,15.7552941 0,14.780838 -0.0041,15.401609 -0.103888,15.727059 -0.247082,0.805836 -0.759426,1.509665 -1.43346,1.969205 -0.467934,0.319026 -0.904659,0.477543 -1.506273,0.54673 -0.55423,0.06374 -29.9917528,0.05881 -30.5281434,-0.0051 z M 24.199602,35.684271 c 0.630816,-0.116613 1.149213,-0.502762 1.422771,-1.059809 0.140793,-0.286696 0.156451,-0.377922 0.156451,-0.911521 0,-0.52076 -0.01784,-0.63075 -0.146504,-0.903529 -0.186826,-0.396074 -0.558599,-0.767847 -0.954673,-0.954673 -0.270147,-0.127428 -0.384117,-0.146419 -0.875294,-0.145853 -0.688349,7.97e-4 -0.965764,0.114109 -1.444934,0.59021 -0.441817,0.438987 -0.578097,0.811041 -0.548905,1.498551 0.02617,0.616198 0.165671,0.947248 0.562483,1.334784 0.298506,0.291527 0.644169,0.479668 1.015266,0.552598 0.349531,0.06869 0.438096,0.06861 0.813339,-7.57e-4 z m 0.947539,-7.865257 c 0.105615,-1.607836 0.530996,-2.469706 1.948581,-3.948039 1.982967,-2.067944 2.597072,-2.966932 2.991092,-4.378656 0.14034,-0.502819 0.152353,-0.627574 0.150499,-1.562907 -0.0022,-1.101643 -0.08464,-1.59647 -0.39211,-2.353165 -0.714698,-1.758881 -2.357428,-2.95638 -4.520969,-3.295644 -0.916949,-0.143786 -2.587501,-0.09175 -3.428472,0.106788 -1.853728,0.437639 -3.379636,1.51326 -4.454699,3.140144 -0.272476,0.412335 -0.754131,1.347632 -0.714438,1.387325 0.08522,0.08522 2.896408,1.213688 2.911404,1.168698 0.01067,-0.03201 0.174391,-0.293468 0.363819,-0.581007 0.65185,-0.989462 1.498178,-1.687976 2.422555,-1.999448 0.406353,-0.136922 0.587851,-0.163456 1.265009,-0.184939 0.579721,-0.01839 0.900257,-0.0018 1.201763,0.06218 1.388542,0.294675 2.216457,1.310455 2.213873,2.716229 -0.0023,1.273076 -0.52122,2.155133 -2.422496,4.118071 -1.957475,2.020959 -2.354686,2.731615 -2.575877,4.608542 -0.04573,0.388045 -0.08315,0.889928 -0.08315,1.115294 v 0.409758 h 1.544425 1.544423 z"
     id="path12" />
</svg>
