<?xml version="1.0" encoding="UTF-8" standalone="no"?>
<svg
   xmlns:dc="http://purl.org/dc/elements/1.1/"
   xmlns:cc="http://creativecommons.org/ns#"
   xmlns:rdf="http://www.w3.org/1999/02/22-rdf-syntax-ns#"
   xmlns:svg="http://www.w3.org/2000/svg"
   xmlns="http://www.w3.org/2000/svg"
   xmlns:sodipodi="http://sodipodi.sourceforge.net/DTD/sodipodi-0.dtd"
   xmlns:inkscape="http://www.inkscape.org/namespaces/inkscape"
   height="48"
   width="48"
   version="1.1"
   id="svg4"
   sodipodi:docname="tasks.svg"
   inkscape:version="1.0.1 (3bc2e813f5, 2020-09-07)">
  <metadata
     id="metadata10">
    <rdf:RDF>
      <cc:Work
         rdf:about="">
        <dc:format>image/svg+xml</dc:format>
        <dc:type
           rdf:resource="http://purl.org/dc/dcmitype/StillImage" />
      </cc:Work>
    </rdf:RDF>
  </metadata>
  <defs
     id="defs8" />
  <sodipodi:namedview
     pagecolor="#ffffff"
     bordercolor="#666666"
     borderopacity="1"
     objecttolerance="10"
     gridtolerance="10"
     guidetolerance="10"
     inkscape:pageopacity="0"
     inkscape:pageshadow="2"
     inkscape:window-width="1920"
     inkscape:window-height="1017"
     id="namedview6"
     showgrid="false"
     inkscape:zoom="17.708333"
     inkscape:cx="24"
     inkscape:cy="24"
     inkscape:window-x="-8"
     inkscape:window-y="-8"
     inkscape:window-maximized="1"
     inkscape:current-layer="svg4"
     inkscape:document-rotation="0" />
  <path
     d="M21.7 35.25 33.25 23.7l-2.05-2.05-9.5 9.5L16.55 26l-2.05 2.05ZM11.1 44.3q-1.35 0-2.375-1.025T7.7 40.9V7.1q0-1.4 1.025-2.4t2.375-1h18.1l11.1 11.1v26.1q0 1.35-1 2.375T36.9 44.3Zm16.35-27.9h9.45l-9.45-9.3Z"
     id="path2" />
  <path
     style="fill:#ffffff;stroke-width:0.0564706"
     d="M 10.414174,44.189574 C 9.3728763,43.961929 8.3259675,43.029872 7.9081757,41.958499 L 7.7647059,41.590588 7.7500532,24.152283 C 7.7337708,4.7744587 7.7022872,6.3618509 8.1186249,5.569061 8.4985089,4.8456863 9.3185621,4.1487093 10.104162,3.8815195 l 0.371132,-0.1262254 9.345882,-0.014695 9.345883,-0.014695 5.548929,5.5496136 5.548929,5.5496133 -0.01481,13.382729 -0.01481,13.382728 -0.134303,0.359042 c -0.178286,0.476622 -0.620749,1.128679 -0.983777,1.449789 -0.36359,0.321605 -0.678795,0.511363 -1.162227,0.699675 l -0.373811,0.145612 -13.411764,0.01 c -10.976806,0.0082 -13.474124,-0.0037 -13.755238,-0.06511 z M 33.261176,23.690088 c 0,-0.05667 -1.977892,-2.061853 -2.033793,-2.061853 -0.01665,0 -2.164131,2.134559 -4.772191,4.743464 l -4.741927,4.743464 -2.58352,-2.583063 -2.58352,-2.583062 -1.045082,1.043936 -1.045082,1.043937 3.628307,3.628634 3.628306,3.628634 5.774252,-5.774045 c 3.175838,-3.175725 5.77425,-5.799246 5.77425,-5.830046 z m 1.546296,-9.391636 C 33.623582,13.12748 31.48264,11.016432 30.049825,9.6072339 L 27.444706,7.0450562 v 4.6939428 4.693942 l 4.757647,-0.0027 L 36.96,16.427541 34.807472,14.2985 Z"
     id="path14" />
  <path
     style="fill:none;stroke-width:0.0564706"
     d="m 18.098839,31.623545 -3.557296,-3.557632 1.002153,-1.002152 1.002152,-1.002153 2.569483,2.569017 2.569482,2.569017 4.757951,-4.7577 4.757949,-4.7577 1.001763,1.002923 1.001761,1.002923 -5.745751,5.745544 c -3.160163,3.160049 -5.758486,5.745545 -5.774052,5.745545 -0.01556,0 -1.629083,-1.600935 -3.585595,-3.557632 z"
     id="path9" />
  <path
     style="fill:none;stroke-width:0.0564706"
     d="m 18.098839,31.623545 -3.557296,-3.557632 1.002153,-1.002152 1.002152,-1.002153 2.569483,2.569017 2.569482,2.569017 4.757951,-4.7577 4.757949,-4.7577 1.001763,1.002923 1.001761,1.002923 -5.745751,5.745544 c -3.160163,3.160049 -5.758486,5.745545 -5.774052,5.745545 -0.01556,0 -1.629083,-1.600935 -3.585595,-3.557632 z"
     id="path11" />
  <path
     style="fill:#ffffff;stroke-width:0.0564706"
     d="M 10.517778,44.159314 C 9.5915941,44.023622 8.5820944,43.217732 8.067831,42.203506 L 7.8211762,41.717055 7.8058699,24.599704 C 7.7962075,13.794108 7.8109634,7.222834 7.8458875,6.7785435 7.8941865,6.1641025 7.9236148,6.0305961 8.0776464,5.7271294 8.4354903,5.0221203 9.0550193,4.4270327 9.8258821,4.0478644 l 0.4799999,-0.2361001 9.402353,-0.030655 9.402353,-0.030655 5.55407,5.5424075 5.554069,5.5424072 -0.0086,13.403534 -0.0086,13.403532 -0.214781,0.454127 c -0.434524,0.918747 -0.943133,1.440717 -1.812576,1.860192 l -0.48,0.231583 -13.44,0.0072 c -7.392,0.004 -13.573353,-0.01229 -13.73634,-0.03617 z M 27.520473,29.536983 c 3.157387,-3.166424 5.740704,-5.796279 5.740704,-5.844123 0,-0.116258 -1.910152,-2.064625 -2.024131,-2.064625 -0.04912,0 -2.212403,2.121654 -4.807293,4.714786 l -4.717983,4.714786 -2.582696,-2.582696 -2.582696,-2.582696 -1.044954,1.043808 c -0.574725,0.574095 -1.044954,1.069404 -1.044954,1.100688 0,0.07756 7.183876,7.257207 7.261485,7.257207 0.034,0 2.645131,-2.590711 5.802518,-5.757135 z M 35.286134,14.721807 C 34.334449,13.783872 32.180802,11.660185 30.500252,10.002502 L 27.444706,6.9885327 v 4.7222043 4.722204 l 4.785882,-0.0029 4.785883,-0.0029 -1.730337,-1.705337 z"
     id="path12" />
  <path
     style="fill:#ffffff;stroke-width:0.0564706"
     d="M 10.517778,44.159139 C 9.5744935,44.021497 8.56788,43.207666 8.0498537,42.163862 l -0.2569128,-0.51767 9.189e-4,-17.13839 C 7.7944127,14.195565 7.8161277,7.1112774 7.8483795,6.7213155 7.8939065,6.1708407 7.9283794,6.0212089 8.0772416,5.727927 8.4399359,5.0133616 9.0326156,4.442959 9.8215499,4.0491821 l 0.4756681,-0.2374178 9.406685,-0.030655 9.406685,-0.030655 5.55407,5.5424075 5.554069,5.5424072 -0.0086,13.403534 -0.0086,13.403532 -0.214781,0.454127 c -0.441047,0.93254 -0.94693,1.445947 -1.847345,1.874821 l -0.514769,0.245189 -13.405231,-0.007 c -7.372878,-0.0039 -13.538584,-0.0265 -13.701571,-0.05029 z M 27.521828,29.53341 c 3.156642,-3.16839 5.739349,-5.797056 5.739349,-5.84148 0,-0.105253 -1.924288,-2.066785 -2.025823,-2.065034 -0.04267,7.34e-4 -2.203459,2.122471 -4.801745,4.714966 l -4.724158,4.713626 -2.581536,-2.581537 -2.581537,-2.581536 -1.044954,1.043808 c -0.574725,0.574095 -1.044954,1.069404 -1.044954,1.100688 0,0.07844 7.184339,7.257207 7.26284,7.257207 0.03474,0 2.645877,-2.592319 5.802518,-5.760708 z m 7.877233,-14.698658 c -0.889576,-0.87582 -3.043223,-2.999511 -4.785883,-4.719315 L 27.444706,6.988522 v 4.722209 4.72221 l 4.785882,-0.0029 4.785883,-0.0029 -1.61741,-1.592399 z"
     id="path15" />
  <path
     style="fill:#ffffff;stroke-width:0.0564706"
     d="m 18.098839,31.623545 -3.557296,-3.557632 1.002153,-1.002152 1.002152,-1.002153 2.569483,2.569017 2.569482,2.569017 4.757951,-4.7577 4.757949,-4.7577 1.001763,1.002923 1.001761,1.002923 -5.745751,5.745544 c -3.160163,3.160049 -5.758486,5.745545 -5.774052,5.745545 -0.01556,0 -1.629083,-1.600935 -3.585595,-3.557632 z"
     id="path17" />
  <path
     style="fill:#ffffff;stroke-width:0.0564706"
     d="m 18.098839,31.623545 -3.557296,-3.557632 1.002153,-1.002152 1.002152,-1.002153 2.569483,2.569017 2.569482,2.569017 4.757951,-4.7577 4.757949,-4.7577 1.001763,1.002923 1.001761,1.002923 -5.745751,5.745544 c -3.160163,3.160049 -5.758486,5.745545 -5.774052,5.745545 -0.01556,0 -1.629083,-1.600935 -3.585595,-3.557632 z"
     id="path19" />
  <path
     style="fill:#ffffff;stroke-width:0.0564706"
     d="m 18.098839,31.623545 -3.557296,-3.557632 1.002153,-1.002152 1.002152,-1.002153 2.569483,2.569017 2.569482,2.569017 4.757951,-4.7577 4.757949,-4.7577 1.001763,1.002923 1.001761,1.002923 -5.745751,5.745544 c -3.160163,3.160049 -5.758486,5.745545 -5.774052,5.745545 -0.01556,0 -1.629083,-1.600935 -3.585595,-3.557632 z"
     id="path21" />
  <path
     style="fill:#ffffff;stroke-width:0.0564706"
     d="m 18.098839,31.623545 -3.557296,-3.557632 1.002153,-1.002152 1.002152,-1.002153 2.569483,2.569017 2.569482,2.569017 4.757951,-4.7577 4.757949,-4.7577 1.001763,1.002923 1.001761,1.002923 -5.745751,5.745544 c -3.160163,3.160049 -5.758486,5.745545 -5.774052,5.745545 -0.01556,0 -1.629083,-1.600935 -3.585595,-3.557632 z"
     id="path23" />
</svg>
